<svg xmlns="http://www.w3.org/2000/svg" xmlns:xlink="http://www.w3.org/1999/xlink" width="48.75" height="64.76" viewBox="0 0 48.75 64.76"><path d="M12.54 39.91c.1 0 2.77.06 2.77 6.02 0 7.13-.85 17.37-.85 17.37s-.61.46-1.62.46c-1.01 0-1.46-.53-1.46-.53v-9.15s-.7-.18-1.58-.18c-.88 0-.71 1.14-.71 1.14v8.14s-.27.53-1.33.53c-1.05 0-1.45-.41-1.45-.41s-1.26-9.57-1.26-16.69c0-5.05.33-5.48.44-5.48l.04.02 4.47-1.24h2.54m0-.99h-2.6799999999999997l-.13.04-4.29 1.19c-.21.01-.74.1-1.01.78-.09.22-.15.52-.21.93-.12.94-.18 2.54-.18 4.75 0 7.11 1.25 16.72 1.27 16.82l.04.33.23.24c.12.12.77.71 2.17.71 1.58 0 2.12-.89 2.21-1.07l.11-.22v-8.47l-.01-.05.3.02v8.67l.24.28c.08.09.8.88 2.22.88 1.3 0 2.13-.59 2.22-.66l.36-.27.04-.45c.01-.1.86-10.37.86-17.45 0-2.74-.54-4.72-1.6-5.91-.94-1.04-1.97-1.09-2.16-1.09M27.74 18.4c.4 0 .8.1 1.16.31l.18.1c1.13.64 1.52 2.08.88 3.22l-4.97 8.71c-.6 1.05-2.72 4.62-3.93 4.62-.09 0-.18-.02-.27-.07 0 0-2.29-.16-1.65-1.29l6.54-14.4c.44-.77 1.24-1.2 2.06-1.2m0-1c-1.2 0-2.32.65-2.92 1.7l-.02.04-.02.04-6.52 14.37c-.38.7-.19 1.26-.04 1.53.27.5.81.85 1.6 1.06.29.07.55.11.72.13.17.06.34.09.52.09.89 0 1.81-.72 2.99-2.32.77-1.05 1.46-2.2 1.8-2.8l4.97-8.71c.44-.78.56-1.68.32-2.55-.24-.87-.8-1.59-1.57-2.03l-.18-.1c-.5-.3-1.07-.45-1.65-.45M5.79 41.25c.36 0 .76.1 1.13.3l.15.08c.95.5 1.41 1.49 1.03 2.19l-3.12 4.81c-.37.7-2.52 3.3-2.52 3.3s-1.79-.27-1.42-.97l3.48-9.06c.24-.42.72-.65 1.27-.65m0-1c-.95 0-1.75.44-2.14 1.18l-.03.05-.02.06-3.47 9.01c-.18.39-.18.81.01 1.19.4.8 1.54 1.08 2.18 1.17l.56.09.36-.44c.36-.44 2.16-2.63 2.61-3.43l3.1-4.78.02-.04.02-.04c.33-.62.33-1.37 0-2.06-.29-.61-.8-1.13-1.45-1.47l-.15-.08c-.5-.27-1.06-.41-1.6-.41M20.67 33.63c.64 0 1.38.22.75 1.4l-5.75 7.81c-.23.24-.55.36-.91.36-.49 0-1.04-.22-1.49-.65l-.12-.11c-.78-.74-.97-1.8-.42-2.38l4.27-3.82c.55-.58 2.91-2.53 2.91-2.53s.37-.08.76-.08m0-1v1-1c-.49 0-.92.1-.97.11l-.23.05-.18.15c-.24.2-2.36 1.94-2.98 2.58l-4.25 3.79-.03.03-.03.03c-.94 1-.74 2.66.46 3.79l.12.12c.62.58 1.41.92 2.18.92.64 0 1.22-.24 1.63-.67l.04-.04.04-.05 5.75-7.81.04-.06.03-.07c.42-.8.47-1.48.13-2.04-.21-.38-.7-.83-1.75-.83" fill="#fff"/><path fill="#E5E5E5" d="M31.37 17.11v-4.51h5.21v4.51h-5.21"/><path d="M36.08 13.1v3.51h-4.21v-3.51h4.21m1-1h-6.21v5.51h6.21v-5.51" fill="#fff"/><path d="M34.05 14.11c-3.75 0-6.81-3.05-6.81-6.81 0-3.75 3.05-6.81 6.81-6.81 3.75 0 6.81 3.05 6.81 6.81-.01 3.76-3.06 6.81-6.81 6.81" fill="#BDBDBD"/><path d="M34.05 1c3.48 0 6.31 2.82 6.31 6.31 0 3.48-2.82 6.31-6.31 6.31-3.48 0-6.31-2.82-6.31-6.31 0-3.49 2.82-6.31 6.31-6.31m0-1c-4.03 0-7.31 3.28-7.31 7.31s3.28 7.31 7.31 7.31c4.03 0 7.31-3.28 7.31-7.31s-3.28-7.31-7.31-7.31M33.97 15.16c-2.64 0-4.71-2.11-4.71-4.8v-4.29c0-1.8 2.37-2.61 4.71-2.61 2.35 0 4.71.81 4.71 2.61v4.29c.01 2.69-2.06 4.8-4.71 4.8M33.97 3.97c2.11 0 4.21.7 4.21 2.11v4.29c0 2.37-1.84 4.3-4.21 4.3s-4.21-1.92-4.21-4.3v-4.3c0-1.4 2.11-2.1 4.21-2.1m0-1c-1.24 0-2.41.22-3.3.61-1.66.74-1.91 1.88-1.91 2.49v4.29c0 1.42.53 2.74 1.5 3.74.98 1.01 2.3 1.56 3.71 1.56 1.41 0 2.73-.55 3.71-1.56.97-.99 1.5-2.32 1.5-3.74v-4.29c0-.61-.25-1.75-1.91-2.49-.88-.39-2.06-.61-3.3-.61M31.87 15.45l2.11 1.05 2.11-.91v.83l4.91 2.41v1.98h-14.05v-1.98l4.92-2.41v-.97m-1-1.61v1.9700000000000002l-4.36 2.14-.56.27v3.6h16.049999999999997v-3.6l-.56-.27-4.36-2.14v-1.73l-1.39.6-1.69.73-1.69-.85-1.44-.72" fill="#fff"/><path fill="#BDBDBD" d="M30.11 5.76v-2.93h6.78v2.93h-6.78"/><path d="M36.39 3.33v1.93h-5.78v-1.93h5.78m1-1h-7.78v3.9299999999999997h7.78v-3.9299999999999997" fill="#fff"/><path fill="#E5E5E5" d="M8.14 40.19v-2.75h3.92v2.75h-3.92"/><path d="M11.56 37.94v1.76h-2.92v-1.76h2.92m1-1h-4.92v3.76h4.92v-3.76" fill="#fff"/><path d="M10.14 38.33c-2.48 0-4.5-2.02-4.5-4.5s2.02-4.5 4.5-4.5 4.5 2.02 4.5 4.5-2.02 4.5-4.5 4.5" fill="#222E3B"/><path d="M10.14 29.83c2.21 0 4 1.79 4 4s-1.79 4-4 4-4-1.79-4-4c.01-2.21 1.8-4 4-4m0-1c-2.75 0-4.99 2.24-4.99 4.99 0 2.76 2.24 5 4.99 5 2.76 0 5-2.24 5-5 0-2.75-2.24-4.99-5-4.99M10.1 38.99c-1.83 0-3.43-1.51-3.43-3.22v-2.51c0-1.34 1.85-1.82 3.43-1.82s3.43.48 3.43 1.82v2.51c-.01 1.71-1.61 3.22-3.43 3.22M10.1 31.93c1.46 0 2.93.44 2.93 1.32v2.51c0 1.5-1.42 2.72-2.93 2.72-1.5 0-2.93-1.22-2.93-2.72v-2.51c0-.88 1.46-1.32 2.93-1.32m0-1c-2.39 0-3.93.91-3.93 2.32v2.51c0 1 .44 1.95 1.23 2.67.74.67 1.72 1.06 2.7 1.06.97 0 1.96-.39 2.7-1.06.79-.72 1.23-1.66 1.23-2.67v-2.51c-.01-1.41-1.55-2.32-3.93-2.32M41.08 18.84s1.82 1.6 2.57 4.2c.75 2.6 4.03 17.18 4.03 17.18s-1.11 1.67-2.08 1.67c-.32 0-.63-.19-.88-.68-.48-.97-3.52-8.96-3.52-8.96l.22 10.62c0 .43-.83 19.34-.83 19.34 0 .95-1.19 1.42-2.38 1.42-1.2 0-2.41-.48-2.41-1.44l-.99-17.84h-1.44l-1.12 17.85c0 .95-1.19 1.42-2.38 1.42-1.2 0-2.41-.48-2.41-1.44 0 0-.63-18.99-.63-19.45v-4.01l-.3-19.76 14.55-.12m.37-1h-.38l-14.55.13-1.01.01.02 1.01.3 19.75v4c0 .46.56 17.45.63 19.46 0 .55.22 1.06.62 1.46.61.61 1.62.96 2.79.96 1.97 0 3.35-.98 3.38-2.38l.83-13.11.72 13.09c.01.55.22 1.05.62 1.45.61.61 1.62.96 2.79.96 1.97 0 3.36-.98 3.38-2.39.09-2.02.83-18.93.83-19.37v-.02l-.1-4.91c.67 1.72 1.3 3.3 1.51 3.72.53 1.08 1.34 1.24 1.77 1.24.69 0 1.4-.38 2.12-1.14.45-.47.75-.92.79-.97l.24-.36-.1-.43c-.13-.6-3.3-14.63-4.05-17.23-.82-2.85-2.78-4.6-2.87-4.67l-.28-.26" fill="#fff"/><path d="M36.68 6.77c-1.08 0-1.95-.88-1.95-1.95 0-1.08.88-1.95 1.95-1.95 1.08 0 1.95.88 1.95 1.95 0 1.07-.88 1.95-1.95 1.95" fill="#BDBDBD"/><path d="M36.68 3.37c.8 0 1.45.65 1.45 1.45 0 .8-.65 1.45-1.45 1.45-.8 0-1.45-.65-1.45-1.45 0-.8.65-1.45 1.45-1.45m0-1c-1.35 0-2.45 1.1-2.45 2.45s1.1 2.45 2.45 2.45 2.45-1.1 2.45-2.45-1.1-2.45-2.45-2.45" fill="#fff"/><path d="M33.79 6.77c-1.08 0-1.95-.88-1.95-1.95 0-1.08.88-1.95 1.95-1.95 1.08 0 1.95.88 1.95 1.95 0 1.07-.88 1.95-1.95 1.95" fill="#BDBDBD"/><path d="M33.79 3.37c.8 0 1.45.65 1.45 1.45 0 .8-.65 1.45-1.45 1.45-.8 0-1.45-.65-1.45-1.45 0-.8.64-1.45 1.45-1.45m0-1c-1.35 0-2.45 1.1-2.45 2.45s1.1 2.45 2.45 2.45 2.45-1.1 2.45-2.45-1.1-2.45-2.45-2.45" fill="#fff"/><path d="M30.9 6.77c-1.08 0-1.95-.88-1.95-1.95 0-1.08.88-1.95 1.95-1.95 1.08 0 1.95.88 1.95 1.95 0 1.07-.88 1.95-1.95 1.95" fill="#BDBDBD"/><path d="M30.9 3.37c.8 0 1.45.65 1.45 1.45 0 .8-.65 1.45-1.45 1.45-.8 0-1.45-.65-1.45-1.45-.01-.8.64-1.45 1.45-1.45m0-1c-1.35 0-2.45 1.1-2.45 2.45s1.1 2.45 2.45 2.45 2.45-1.1 2.45-2.45-1.1-2.45-2.45-2.45" fill="#fff"/><path d="M7.32 34.42c-.6 0-1.06-.23-1.25-.64-.11-.23-.23-.72.27-1.35.29-.37.74-.71 1.26-.96.51-.24 1.05-.38 1.51-.38.6 0 1.06.23 1.25.64.36.74-.29 1.72-1.53 2.31-.51.24-1.05.38-1.51.38" fill="#222E3B"/><path d="M9.11 31.59c.39 0 .69.12.8.35.22.46-.36 1.2-1.3 1.65-.46.22-.92.33-1.3.33-.39 0-.69-.12-.8-.35-.22-.46.36-1.2 1.29-1.65.47-.22.93-.33 1.31-.33m0-1c-.54 0-1.15.15-1.73.43-.59.28-1.1.67-1.43 1.1-.49.62-.6 1.3-.33 1.88.28.58.9.92 1.7.92.54 0 1.15-.15 1.73-.43 1.51-.72 2.25-1.98 1.77-2.98-.29-.59-.91-.92-1.71-.92" fill="#fff"/><path d="M11.96 33.42c-.44 0-.93-.11-1.42-.32-1.25-.53-1.95-1.5-1.63-2.25.19-.44.67-.69 1.33-.69.44 0 .93.11 1.42.32.53.23.99.55 1.3.91.52.61.43 1.1.33 1.34-.18.43-.67.69-1.33.69" fill="#222E3B"/><path d="M10.25 30.66c.36 0 .79.09 1.22.28.96.41 1.57 1.12 1.37 1.59-.11.26-.44.39-.87.39-.36 0-.79-.09-1.22-.28-.95-.41-1.57-1.12-1.36-1.59.1-.26.43-.39.86-.39m0-1c-.87 0-1.52.36-1.79 1-.44 1.03.36 2.25 1.89 2.9.54.23 1.1.36 1.61.36.87 0 1.52-.36 1.79-1 .25-.59.1-1.27-.41-1.86-.36-.42-.88-.78-1.48-1.04-.54-.23-1.1-.36-1.61-.36" fill="#fff"/><path d="M8.04 37.19c.53.78 1.45 1.3 2.43 1.3 1.32 0 2.55-.94 2.83-2.18.54-.68.88-1.54.88-2.48 0-2.21-1.79-4-4-4s-4 1.79-4 4c.01 1.41.75 2.65 1.86 3.36M19.96 33.71s-2.37 1.95-2.92 2.53l-3.78 3.38c-.39-.16-.69-.15-.69-.15h-1.14v-.39l-.97.39h-.42l-.24.1-1.26-.58v.62l-2.89 1.53v.14c-.47.04-.88.25-1.08.63l-3.48 9.06c-.37.7 1.42.97 1.42.97s2.15-2.6 2.52-3.3l.08-.12c.19 6.8 1.23 14.74 1.23 14.74s.6.44 1.65.44c1.05 0 1.52-.5 1.52-.5v-8.14s-.36-1.14.53-1.14c.88 0 1.4.18 1.4.18v9.15s.44.53 1.45.53 1.61-.46 1.61-.46.36-10.48.85-17.59c.07-1.03.04-1.88-.05-2.6.16-.06.3-.14.42-.27l5.75-7.81c.99-1.91-1.51-1.34-1.51-1.34" fill="#E5382F"/><path d="M46.14 62.6v-23.13c0-.28-.22-.5-.5-.5s-.5.22-.5.5v23.13c0 .28.22.5.5.5s.5-.23.5-.5M30.22 12.28c.72 1.4 2.18 2.38 3.86 2.38 1.67 0 3.12-.96 3.84-2.36 1.5-1.15 2.47-2.96 2.47-5 0-3.48-2.82-6.31-6.31-6.31-3.48 0-6.31 2.82-6.31 6.31.01 2.03.97 3.83 2.45 4.98M43.61 23.04c-.57-1.93-1.33-3.31-2.3-3.89v-.31l-4.82-2.41v-.83l-2.41.91-2.41-1.05v.98l-3.94 1.98c-.81.01-1.58.43-2.01 1.18l-6.53 14.4c-.65 1.13 1.65 1.29 1.65 1.29 1.13.64 3.55-3.42 4.19-4.55l1.61-2.85.22 10.84v4.01c0 .45.53 19.45.53 19.45-.01 1.9 4.78 1.9 4.79-.01l1.08-17.88h1.45l1 17.86c-.01 1.9 4.8 1.94 4.8.04 0 0 .8-18.9.8-19.33v-10.83s2.03 5.32 3.06 8.13c1.03 2.8 3.32.05 3.32.05s-3.33-14.58-4.08-17.18" fill="#222E3B"/><path d="M9.95 31.94c.22.46-.36 1.2-1.29 1.65-.94.45-1.87.44-2.1-.02-.22-.46.36-1.2 1.29-1.65.94-.45 1.88-.44 2.1.02M12.88 32.53c-.2.47-1.14.52-2.09.11-.95-.41-1.57-1.12-1.36-1.59.2-.47 1.14-.52 2.09-.11.95.4 1.56 1.12 1.36 1.59" fill="#E5382F"/><defs><path id="a" d="M1.04 29.83h20.66v33.93h-20.66v-33.93"/></defs><clipPath id="b"><use xlink:href="#a" overflow="visible"/></clipPath><g clip-path="url(#b)"><defs><path id="c" d="M10.91 29.9v.84c.2.05.4.11.6.2.96.41 1.57 1.12 1.37 1.59-.11.26-.44.39-.87.39-.32 0-.71-.07-1.1-.22v5.76c1.14-.18 2.14-1.04 2.39-2.15.54-.68.88-1.54.88-2.48 0-1.96-1.41-3.59-3.27-3.93"/></defs><clipPath id="d"><use xlink:href="#c" overflow="visible"/></clipPath><path clip-path="url(#d)" fill="#E5382F" d="M10.91 29.9h3.27v8.56h-3.27z"/></g><path d="M10.91 30.74v1.95c.39.15.77.22 1.1.22.43 0 .76-.13.87-.39.2-.47-.41-1.18-1.37-1.59-.2-.08-.41-.15-.6-.19M19.08 34.45l-.03.03c-.25.21-.53.44-.79.67-.51.44-.99.87-1.21 1.09l-3.35 2.99-.43.39-.03-.01c-.34-.13-.59-.14-.65-.14h-1.1600000000000001v-.39l-.52.21v14.67c.34.05.52.12.52.12v9.15s.44.53 1.45.53 1.61-.46 1.61-.46.36-10.48.85-17.59c.03-.39.04-.75.04-1.09 0-.56-.03-1.06-.09-1.51.16-.06.3-.14.42-.27l5.51-7.49-.12.01c-.09 0-.18-.02-.27-.07.01 0-1.65-.12-1.75-.84" clip-path="url(#b)" fill="#E5382F"/><path d="M9.91 29.84c-2.08.14-3.72 1.87-3.72 3.99 0 1.41.74 2.65 1.85 3.36.43.63 1.11 1.09 1.87 1.24v-5.93c-.19.38-.64.79-1.25 1.09-.46.22-.92.33-1.3.33-.39 0-.69-.12-.8-.35-.22-.46.36-1.2 1.29-1.65.46-.22.92-.33 1.3-.33.13 0 .24.01.34.04-.11-.21-.15-.41-.07-.57.07-.17.25-.29.49-.35v-.87M9.15 31.59c-.38 0-.84.11-1.3.33-.94.45-1.52 1.19-1.29 1.65.11.24.41.35.8.35.38 0 .84-.11 1.3-.33.61-.29 1.07-.71 1.25-1.09v-.39c-.18-.16-.32-.32-.42-.48-.1-.03-.22-.04-.34-.04M9.91 30.7c-.24.06-.42.17-.49.35-.07.17-.04.37.07.57.09.16.23.33.42.48v-1.4M8.54 38.99v.62l-1.61.85-1.28.68v.14l-.3.05c-.34.09-.62.28-.78.57l-.45 1.18-3.03 7.88-.05.18v.01c.01.56 1.47.78 1.47.78s2.15-2.6 2.52-3.3l.08-.12c.19 6.8 1.23 14.74 1.23 14.74s.6.44 1.65.44c1.05 0 1.52-.5 1.52-.5v-8.14s-.07-.23-.07-.48c0-.28.09-.6.47-.66v-14.38l-.11.04-1.26-.58" clip-path="url(#b)" fill="#FF4739"/><path d="M10 32.18c0 .1-.04.21-.09.32v5.93c.18.04.37.06.56.06.15 0 .29-.01.44-.03v-5.76l-.12-.05c-.31-.14-.57-.3-.79-.47m.18-2.35l-.28.01v.86c.11-.03.24-.04.38-.04.19 0 .4.03.62.08v-.84c-.23-.05-.47-.07-.72-.07M9.91 32.11v.39c.05-.11.08-.22.09-.32l-.09-.07M10.29 30.66c-.14 0-.27.01-.38.04v1.41l.09.07c.22.17.48.33.79.46l.12.05v-1.95c-.22-.05-.43-.08-.62-.08M10.91 39.29l-.44.18h-.42l-.13.06v14.38l.12-.01c.35 0 .65.03.88.06v-14.67" clip-path="url(#b)" fill="#F84336"/><defs><path id="e" d="M19.07 1h28.62v62.6h-28.62v-62.6"/></defs><clipPath id="f"><use xlink:href="#e" overflow="visible"/></clipPath><path d="M34.46 1.01v13.63c1.51-.13 2.8-1.05 3.47-2.34 1.5-1.15 2.47-2.96 2.47-5-.01-3.35-2.63-6.1-5.94-6.29M36.49 15.6l-2.03.76v27.92h.25l1 17.86c0 .96 1.22 1.45 2.43 1.45 1.19 0 2.37-.47 2.37-1.41 0 0 .8-18.9.8-19.33v-10.809999999999999s2.03 5.32 3.06 8.13c.35.95.84 1.26 1.34 1.26.98 0 1.98-1.21 1.98-1.21s-.39-1.72-.94-4.07c-1.04-4.52-2.65-11.39-3.15-13.1-.12-.41-.25-.8-.39-1.16-.46-1.2-1.03-2.09-1.7-2.59l-.21-.14v-.3l-1.97-.98-2.85-1.43v-.85" clip-path="url(#f)" fill="#222E3B"/><path d="M33.46 1.03c-3.19.32-5.68 3.01-5.68 6.28 0 2.03.96 3.82 2.44 4.98.63 1.23 1.82 2.12 3.24 2.33v-13.59M31.67 15.45v.98l-3.94 1.98c-.81.01-1.58.43-2.01 1.18l-6.53 14.4c-.08.14-.11.26-.11.37l.01.08.88-.74s.36-.08.75-.08c.64 0 1.37.22.75 1.4l-.24.32c1.22-.22 3.23-3.59 3.8-4.6l1.61-2.85.22 10.84v4.01c0 .45.53 19.45.53 19.45 0 .95 1.19 1.42 2.38 1.42 1.2 0 2.41-.48 2.41-1.43l1.08-17.88h.21v-28.06l-.23-.1-1.57-.69M20.71 33.63c-.39 0-.75.08-.75.08s-.39.32-.88.74c.11.72 1.76.84 1.76.84.08.05.17.07.27.07l.12-.01.24-.32c.61-1.18-.12-1.4-.76-1.4" clip-path="url(#f)" fill="#27384C"/><path d="M34.09 1h-.02c-.21 0-.41.01-.61.03v13.58c.2.03.41.04.62.04l.38-.02v-13.62l-.37-.01M33.46 16.24v28.05h1v-27.93l-.38.15-.62-.27" clip-path="url(#f)" fill="#263548"/></svg>