<svg xmlns="http://www.w3.org/2000/svg" xmlns:xlink="http://www.w3.org/1999/xlink" width="61.78" height="53.56" viewBox="0 0 61.78 53.56"><path fill="#E5382F" d="M50.13 20.27v-14.11h-8.35v5.59l-10.63-10.51-29.96 29.99h7.17v21.69h21.5v-12.88h5.35v12.88h18.5v-21.69h7.17l-10.75-10.96"/><defs><path id="a" d="M1.24 1.24h59.68v51.68h-59.68v-51.68"/></defs><clipPath id="b"><use xlink:href="#a" overflow="visible"/></clipPath><path d="M27.26 5.37l-18.04 18.29 18.04-18.23v-.06m3.89-3.94l-1.4 1.42h.06l.69-.7.61-.61.02.02.02-.02 1.29 1.31h.09l-1.38-1.42M49.69 6.59h-3.2v10.53l2.96 3 .24-13.53M54.19 30.57h-1.4l-17.08 9.42v12.57h17.98v-21.97l.5-.02M29.71 43.3l-16.79 9.26h16.79v-9.26" clip-path="url(#b)" fill="#E5382F"/><path clip-path="url(#b)" fill="#FF4739" d="M50.73 30.57h-48.34 6.34v21.42h3.14l17.84-9.83v-2.59h4.7l16.32-9"/><path clip-path="url(#b)" fill="#F84336" d="M52.79 30.57h-2.06l-16.32 9h1.3v.42l17.08-9.42M29.71 42.16l-17.84 9.83h-3.14v.57h4.19l16.79-9.26v-1.14"/><path d="M45.49 6.59h-2.81l-.2 6.45 3.01 3.06v-9.51m-16.67-2.74h-.06l-.51.51v.06l.57-.57m4.68 0h-.08l6.5 6.6-6.42-6.6" clip-path="url(#b)" fill="#FF4739"/><path d="M29.81 2.85h-.06l-.99 1h.06l.99-1m2.72 0h-.09l.98 1h.08l-.97-1M46.49 6.59h-1v9.51l1 1.01v-10.52m-18.23-2.23l-1 1.01v.05l1-1.01v-.05" clip-path="url(#b)" fill="#F84336"/><path fill="#fff" d="M49.95 20.02l.5.01.25-14.44h-8.98l-.16 5.1-10.4-10.69-31.16 31.57h7.73v21.99h22.98v-12.99h4v12.99h19.98v-22.01l7.09-.27-11.47-11.61-.36.35.5.01-.5-.01-.36.35 9.89 10-5.79.22v21.97h-17.98v-12.99h-6v12.99h-20.98v-21.99h-6.34l28.76-29.14 11.33 11.64.21-6.48h7l-.24 13.63.14.15.36-.35"/><path fill="#222E3B" d="M2.41 30.57l28.74-29.03 28.59 29.03h-57.33"/><defs><path id="c" d="M2.37 1.54h57.33v29.03h-57.33v-29.03"/></defs><clipPath id="d"><use xlink:href="#c" overflow="visible"/></clipPath><path clip-path="url(#d)" fill="#222E3B" d="M31.5 1.93v28.64h28.2l-28.2-28.64"/><path d="M27.26 5.43l-18.04 18.23-2.56 2.59.1-.07 20.49-20.7v-.05m3.25-3.28l-.69.7h.04l.65-.65v-.05" clip-path="url(#d)" fill="#FF443D"/><path clip-path="url(#d)" fill="#FF564A" d="M3.27 29.71l-.07.05-.81.81h.02l.86-.86"/><path clip-path="url(#d)" fill="#FF5146" d="M6.77 26.17l-.11.07-3.46 3.52.07-.05 3.5-3.54"/><path clip-path="url(#d)" fill="#FF564A" d="M28.87 3.85h-.05l-.56.57v.04l.61-.61"/><path clip-path="url(#d)" fill="#FF5146" d="M29.86 2.85h-.05l-.99 1h.05l.99-1M28.26 4.42l-1 1.01v.04l1-1.01v-.04"/><path clip-path="url(#d)" fill="#fff" d="M9.22 23.66l-6.85 6.91h.02l.81-.81 3.46-3.52 2.56-2.58"/><path clip-path="url(#d)" fill="#27384C" d="M30.5 2.19l-.64.66-.99 1-.61.61-1 1.01-20.49 20.7-3.5 3.54-.86.86h28.09v-28.38"/><path clip-path="url(#d)" fill="#F84139" d="M31.11 1.54l-.61.61v.04l.63-.63-.02-.02"/><path clip-path="url(#d)" fill="#263548" d="M31.13 1.56l-.63.63v28.38h1v-28.64l-.37-.37"/><path fill="#fff" d="M12.73 34.57h8.99v6.99h-8.99zM40.7 34.57h8.99v6.99h-8.99z"/></svg>