<svg xmlns="http://www.w3.org/2000/svg" xmlns:xlink="http://www.w3.org/1999/xlink" width="40.72" height="58.94" viewBox="0 0 40.72 58.94"><path d="M11.65 37.5v-7.89l-5.64 5.72c-.95.95-1.89 1.15-2.53 1.15-1.2 0-2.31-.74-2.77-1.84-.48-1.16-.14-2.48.91-3.53l10.46-10.45c1.06-1.04 2.12-1.46 3.53-1.46h9.39c1.45 0 2.55.43 3.6 1.45l10.59 10.6c.99.98 1.28 2.19.81 3.34-.48 1.15-1.62 1.92-2.85 1.92-.87 0-1.55-.38-2.23-1.1l-5.71-5.84v7.93h-17.56" opacity=".9" fill="#222E3B"/><path d="M12.15 37.5v-9.11l-6.5 6.58c-.43.43-.84.68-1.21.82-.37.14-.7.18-.96.18-.5 0-.98-.15-1.39-.42-.41-.27-.73-.65-.92-1.1-.11-.29-.17-.58-.17-.88 0-.35.08-.71.24-1.07.16-.36.41-.71.73-1.04l10.46-10.45c.5-.49.97-.81 1.47-1.01.51-.21 1.05-.3 1.71-.3h9.39c.67 0 1.24.1 1.76.31s1 .53 1.48 1l.35-.36-.35.35 10.59 10.6c.3.3.52.62.67.93.14.32.22.64.22.96 0 .29-.06.59-.18.89-.2.48-.54.88-.96 1.17-.42.28-.92.44-1.43.44-.36 0-.66-.08-.96-.23-.3-.15-.6-.39-.91-.72l-6.57-6.72v9.16h1v-6.68l4.85 4.96.36-.35-.36.34c.37.39.75.7 1.18.92.43.22.91.34 1.41.33.72 0 1.41-.22 1.99-.61.58-.39 1.05-.94 1.33-1.62.17-.41.26-.84.26-1.27 0-.47-.1-.94-.31-1.38-.2-.44-.49-.85-.87-1.23l-10.59-10.6c-.56-.55-1.15-.95-1.81-1.22-.66-.26-1.36-.38-2.14-.38h-9.39c-.76 0-1.45.11-2.09.38-.64.26-1.23.67-1.79 1.22l-10.47 10.47c-.41.41-.72.86-.94 1.33-.22.48-.33.98-.33 1.48 0 .43.08.86.25 1.26.27.65.72 1.18 1.29 1.55.56.37 1.24.59 1.94.59.37 0 .83-.06 1.33-.25.5-.19 1.03-.52 1.56-1.04l4.79-4.85v6.68h.99" opacity=".9" fill="#fff"/><path d="M20.36 18.71c-5.16 0-9.36-4.2-9.36-9.36 0-2.5.97-4.85 2.73-6.61 1.77-1.77 4.11-2.74 6.61-2.74 5.19 0 9.38 4.2 9.38 9.35 0 5.16-4.2 9.36-9.36 9.36" opacity=".9" fill="#222E3B"/><path opacity=".9" fill="#E5382F" d="M28.83 44.25h-16.73v-9.52h16.73v9.52M22.24 44.25h-3.52 3.52"/><g opacity=".9"><defs><path id="a" opacity=".9" d="M12.1 34.73h16.73v9.52h-16.73v-9.52"/></defs><clipPath id="b"><use xlink:href="#a" overflow="visible"/></clipPath><path clip-path="url(#b)" fill="#E5382F" d="M28.83 37.5h-8.22v6.75h1.63l.63-.62 5.96-5.96v-.17"/><path clip-path="url(#b)" fill="#FF4739" d="M19.61 37.5h-7.51v.13l.19.18 5.81 5.82.62.62h.89v-6.75"/><path clip-path="url(#b)" fill="#F84336" d="M20.61 37.5h-1v6.75h1v-6.75"/></g><path d="M29.27 37.22l.27.27 5.3 5.3c1.9 1.91 1.35 5.14-.34 6.86l-7.38 7.69c-.72.72-1.56 1.1-2.43 1.1-1.22 0-2.37-.78-2.85-1.95-.5-1.2-.18-2.53.84-3.55l4.41-4.41-4.58-4.55 6.76-6.76" opacity=".9" fill="#222E3B"/><path d="M28.92 37.58l.27.27c.89.9 2.19 2.2 3.28 3.28l1.4 1.4.44.44.13.13.04.04.02.02.35-.36-.35.35c.37.37.63.79.8 1.24.17.45.25.94.25 1.44 0 .64-.13 1.29-.38 1.89-.24.6-.59 1.15-1.01 1.58l-7.38 7.69.36.35-.35-.35c-.33.32-.67.56-1.01.72-.35.16-.7.23-1.06.23-.5 0-1-.16-1.42-.45-.42-.29-.77-.7-.97-1.19-.13-.32-.19-.64-.19-.96 0-.35.08-.71.23-1.05.15-.35.39-.68.7-.99l4.76-4.76-4.94-4.91-.7.71 4.23 4.2-4.05 4.05c-.39.39-.7.83-.91 1.3-.21.47-.32.96-.32 1.46 0 .45.09.9.27 1.34.28.68.75 1.24 1.33 1.63.58.39 1.27.62 1.99.62.51 0 1-.11 1.47-.32.47-.21.91-.52 1.31-.92l7.38-7.69-.36-.35.33.34c.52-.53.94-1.19 1.23-1.9.29-.71.45-1.49.45-2.27 0-.61-.1-1.22-.32-1.8-.22-.58-.56-1.12-1.03-1.59l-.03.03.03-.03-.03.03.03-.03-.06-.06-5.24-5.24-.27-.27-.7.71" opacity=".9" fill="#fff"/><path d="M18.45 43.98l-4.55 4.55 4.41 4.41c1.02 1.02 1.33 2.34.83 3.55-.48 1.17-1.63 1.95-2.85 1.95-.86 0-1.7-.38-2.42-1.09l-7.42-7.7c-1.67-1.72-2.21-4.96-.31-6.85l.02.02c.33-.39 1.45-1.51 5.25-5.33l.27-.27 6.77 6.76" opacity=".9" fill="#222E3B"/><path d="M18.1 43.63l-4.91 4.91 4.78 4.79-.02-.02c.31.31.54.64.69.99.15.34.23.7.23 1.05 0 .32-.06.65-.19.96-.2.49-.55.9-.97 1.19-.42.29-.92.45-1.42.45-.36 0-.71-.08-1.06-.23-.35-.16-.68-.39-1-.71l-.35.35.35-.36-7.42-7.7c-.42-.43-.76-.97-1-1.57-.24-.6-.37-1.25-.37-1.88 0-.5.08-1 .26-1.45.17-.46.44-.88.8-1.24l-.35-.36-.35.35.02.02.38.38.35-.41.4-.44c.31-.32.8-.82 1.57-1.6.77-.78 1.82-1.83 3.25-3.26l.27-.27-.71-.7-.27.27c-1.9 1.91-3.13 3.14-3.93 3.95-.4.4-.69.7-.9.92-.21.22-.35.37-.44.48l.38.32.35-.35-.02-.02-.35-.35-.35.35c-.47.47-.81 1.02-1.03 1.6-.22.58-.32 1.19-.32 1.81 0 .77.16 1.54.44 2.25s.7 1.36 1.21 1.89l7.42 7.7c.4.4.83.71 1.3.92.47.21.96.32 1.47.32.72 0 1.41-.23 1.98-.62.58-.39 1.05-.96 1.33-1.63.18-.44.27-.89.27-1.35 0-.5-.11-.99-.31-1.45-.21-.46-.51-.9-.9-1.29l-.02-.02-4.04-4.04 4.2-4.2-.7-.7" opacity=".9" fill="#fff"/><g opacity=".9"><defs><path id="c" opacity=".9" d="M0 0h40.72v58.94h-40.72v-58.94"/></defs><clipPath id="d"><use xlink:href="#c" overflow="visible"/></clipPath><path d="M25.01 19.71h-4.4v14.99h3.24v.04h4.86v-6.38l6.57 6.72c.31.33.61.57.91.72.3.15.6.23.96.23.51 0 1.01-.16 1.43-.44.42-.28.76-.69.96-1.17.12-.3.18-.6.18-.89 0-.32-.07-.65-.22-.96-.14-.32-.37-.63-.67-.93l-10.58-10.62c-.48-.47-.96-.79-1.48-1-.52-.21-1.09-.31-1.76-.31" clip-path="url(#d)" fill="#222E3B"/><path clip-path="url(#d)" fill="#E5382F" d="M28.7 34.73h-4.85v2.77h4.98-.13v-2.77"/><path d="M25.01 18.71h-4.4v1h4.4c.67 0 1.24.1 1.76.31s1 .53 1.48 1l10.58 10.59c.3.3.52.62.67.93.14.32.22.64.22.96 0 .29-.06.59-.18.89-.2.48-.54.88-.96 1.17-.42.28-.92.44-1.43.44-.36 0-.66-.08-.96-.23-.3-.15-.6-.39-.91-.72l-6.57-6.72v6.38h.12v2.78h.16l.26-.26.38-.38.08.08v-6.13l4.85 4.96c.37.39.75.7 1.18.92.43.22.9.33 1.41.33h.01c.72 0 1.41-.22 1.99-.61.58-.39 1.05-.94 1.33-1.62.17-.41.26-.84.26-1.27 0-.47-.1-.94-.31-1.38-.2-.44-.49-.85-.87-1.23l-10.59-10.6c-.56-.55-1.15-.95-1.81-1.22-.67-.25-1.38-.37-2.15-.37" clip-path="url(#d)" fill="#fff"/><path clip-path="url(#d)" fill="#E5382F" d="M28.83 34.73h-.13v2.77h.13v-2.77"/><path d="M20.61 0v18.7c5.04-.14 9.11-4.28 9.11-9.35 0-5.06-4.05-9.2-9.11-9.35M29.25 37.25l-.42.42-5.96 5.96 4.94 4.9-4.76 4.76c-.31.31-.54.65-.7.99-.15.35-.23.7-.23 1.05 0 .32.06.64.19.96.2.49.55.9.97 1.19.42.29.92.45 1.42.45.36 0 .71-.08 1.06-.23.35-.16.69-.39 1.01-.72l7.38-7.69c.42-.43.77-.98 1.01-1.58.24-.6.38-1.25.38-1.89 0-.5-.08-.99-.25-1.44-.17-.45-.43-.87-.8-1.24l-.02-.02-.04-.04-.13-.13-.44-.44-1.4-1.4-3.28-3.28-.27-.27.34-.31" clip-path="url(#d)" fill="#222E3B"/><path d="M29.63 36.87l-.38.38-.33.33.27.27c.89.9 2.19 2.2 3.28 3.28l1.4 1.4.44.44.13.13.04.04.02.02c.37.37.63.79.8 1.24.17.45.25.94.25 1.44 0 .64-.13 1.29-.38 1.89-.24.6-.59 1.15-1.01 1.58l-7.38 7.69c-.32.32-.66.56-1.01.72-.35.16-.7.23-1.06.23-.5 0-1-.16-1.42-.45-.42-.29-.77-.7-.97-1.19-.13-.32-.19-.64-.19-.96 0-.35.08-.71.23-1.05.15-.35.39-.68.7-.99l4.76-4.76-4.94-4.9-.7.71 4.23 4.2-4.05 4.05c-.39.39-.7.83-.91 1.3-.21.47-.32.96-.32 1.46 0 .45.09.9.27 1.34.28.68.75 1.24 1.33 1.63.58.39 1.27.62 1.99.62.51 0 1-.11 1.47-.32.47-.21.91-.52 1.31-.92l7.38-7.69c.52-.53.94-1.19 1.22-1.9.29-.71.45-1.49.45-2.27 0-.61-.1-1.22-.32-1.8-.22-.58-.56-1.12-1.03-1.59l-.06-.06-5.24-5.24-.19-.19-.08-.11" clip-path="url(#d)" fill="#fff"/><path d="M19.61 19.71h-4c-.66 0-1.21.1-1.71.3-.5.21-.98.53-1.47 1.01l-10.46 10.45c-.33.33-.57.68-.73 1.04-.16.35-.24.71-.24 1.06 0 .3.06.59.18.88.19.45.51.84.92 1.1.41.27.89.42 1.39.42.26 0 .59-.04.96-.18.37-.14.78-.39 1.21-.82l6.5-6.58v6.3h7.46v-14.98" clip-path="url(#d)" fill="#27384C"/><path d="M15.61 18.71c-.76 0-1.44.11-2.09.38-.64.26-1.23.67-1.79 1.22l-10.46 10.45c-.41.41-.72.86-.94 1.33-.22.48-.33.98-.33 1.48 0 .43.08.86.25 1.26.27.65.72 1.18 1.29 1.55.56.37 1.24.59 1.94.59.37 0 .83-.06 1.32-.25.5-.19 1.03-.52 1.56-1.04l4.79-4.85v6.23l.19-.19.64.64h.01v-2.81h.17v-6.3l-6.5 6.58c-.43.43-.84.68-1.21.82-.37.14-.7.18-.96.18-.5 0-.98-.15-1.39-.42-.41-.27-.73-.65-.92-1.1-.12-.3-.18-.59-.18-.89 0-.35.08-.71.24-1.07.16-.36.41-.71.73-1.04l10.46-10.45c.5-.49.97-.81 1.47-1.01.51-.21 1.05-.3 1.71-.3h4v-1l-4 .01" clip-path="url(#d)" fill="#fff"/><path d="M19.61.03c-2.22.17-4.29 1.12-5.88 2.71-1.76 1.77-2.73 4.12-2.73 6.61 0 4.9 3.79 8.94 8.61 9.33v-18.65M11.98 37.64l-.21.21c-1.43 1.43-2.48 2.48-3.25 3.26-.77.78-1.26 1.28-1.57 1.6-.21.22-.33.35-.4.44l-.35.41-.03-.03c-.2.27-.36.56-.48.87-.17.46-.26.95-.26 1.45 0 .63.13 1.28.37 1.88.24.6.58 1.14 1 1.57l7.41 7.7c.32.32.66.55 1 .71.35.16.7.23 1.06.23.5 0 1-.16 1.42-.45.42-.29.77-.7.97-1.19.13-.32.19-.64.19-.96 0-.35-.08-.7-.23-1.05-.15-.34-.38-.68-.69-.99l.02.02-4.78-4.79 4.91-4.91-5.81-5.81h-.3v-.17" clip-path="url(#d)" fill="#27384C"/><path d="M11.34 36.87l-.27.27c-1.9 1.91-3.13 3.14-3.93 3.95-.4.4-.69.7-.9.92l-.08.08-.01-.01-.35.36c-.47.47-.81 1.02-1.03 1.6-.22.58-.32 1.19-.32 1.81 0 .77.16 1.54.44 2.25s.7 1.36 1.21 1.89l7.42 7.7c.4.4.83.71 1.3.92.47.21.96.32 1.47.32.72 0 1.41-.23 1.98-.62.58-.39 1.05-.96 1.33-1.63l.01-.02v-2.66l-.05-.12c-.21-.46-.51-.9-.9-1.29l-.02-.02-4.04-4.04 4.2-4.2-.71-.71-4.91 4.91 4.78 4.79-.02-.02c.31.31.54.64.69.99.15.34.23.7.23 1.05 0 .32-.06.65-.19.96-.2.49-.55.9-.97 1.19-.42.29-.92.45-1.42.45-.36 0-.71-.08-1.06-.23-.34-.16-.68-.39-1-.71l-7.41-7.7c-.42-.43-.76-.97-1-1.57-.24-.6-.37-1.25-.37-1.88 0-.5.08-1 .26-1.45.12-.31.27-.6.48-.87l.03.03.35-.41.4-.44c.31-.32.8-.82 1.57-1.6.77-.78 1.82-1.83 3.25-3.26l.21-.21v-.13l-.65-.64" clip-path="url(#d)" fill="#fff"/><path clip-path="url(#d)" fill="#263548" d="M20.61 19.71h-1v14.98h1v-14.98"/><path d="M20.61 18.71h-1v1h1v-1" clip-path="url(#d)" fill="#fff"/><path d="M20.34 0c-.24 0-.49.01-.73.03v18.65l.53.03h.47v-18.71h-.27" clip-path="url(#d)" fill="#263548"/><path d="M19.61 54v2.65c.17-.43.26-.88.26-1.32 0-.45-.09-.9-.26-1.33" clip-path="url(#d)" fill="#fff"/><path clip-path="url(#d)" fill="#222E3B" d="M23.85 34.69h-11.7v.04h11.7v-.04"/><path clip-path="url(#d)" fill="#E5382F" d="M23.85 34.73h-3.24v2.77h3.24v-2.77"/><path clip-path="url(#d)" fill="#FF4739" d="M19.61 34.73h-7.46v2.77h-.05 7.51v-2.77"/><path clip-path="url(#d)" fill="#F84336" d="M20.61 34.73h-1v2.77h1v-2.77"/><path clip-path="url(#d)" fill="#fff" d="M12.15 34.69h-.17v2.81h.12v-2.77h.05v-.04"/><path clip-path="url(#d)" fill="#FF4739" d="M12.15 34.73h-.05v2.77h.05v-2.77"/><path clip-path="url(#d)" fill="#222E3B" d="M12.05 37.57l-.07.07v.17h.31l-.19-.18-.05-.06"/><path clip-path="url(#d)" fill="#fff" d="M11.98 37.51v.13l.07-.07-.07-.06"/></g></svg>