<svg xmlns="http://www.w3.org/2000/svg" xmlns:xlink="http://www.w3.org/1999/xlink" width="54.816" height="54.816" viewBox="0 0 54.816 54.816"><path d="M54.099 27.408c0 14.742-11.947 26.691-26.691 26.691s-26.691-11.949-26.691-26.691c0-14.742 11.947-26.691 26.691-26.691s26.691 11.949 26.691 26.691" fill="#222E3B"/><path d="M54.099 27.408h-.717c0 7.175-2.906 13.664-7.607 18.367-4.702 4.701-11.191 7.607-18.368 7.607-7.176 0-13.665-2.906-18.368-7.607-4.701-4.703-7.606-11.192-7.607-18.367 0-7.175 2.905-13.664 7.607-18.367 4.702-4.701 11.191-7.607 18.368-7.607 7.176 0 13.665 2.906 18.368 7.607 4.701 4.703 7.606 11.192 7.607 18.367h1.434c0-7.567-3.068-14.423-8.027-19.381-4.957-4.958-11.813-8.027-19.381-8.027-7.567 0-14.424 3.069-19.381 8.027-4.959 4.958-8.027 11.814-8.027 19.381s3.068 14.423 8.027 19.381c4.957 4.959 11.814 8.028 19.382 8.027 7.568 0 14.424-3.069 19.382-8.027 4.958-4.958 8.027-11.814 8.027-19.381h-.719" fill="#fff"/><defs><path id="a" d="M0 0h54.816v54.816h-54.816v-54.816"/></defs><clipPath id="b"><use xlink:href="#a" overflow="visible"/></clipPath><path d="M27.408 1.434c-7.176 0-13.665 2.906-18.368 7.607-4.701 4.703-7.606 11.192-7.607 18.367 0 7.175 2.905 13.664 7.607 18.367 4.702 4.701 11.191 7.607 18.368 7.607 7.176 0 13.665-2.906 18.368-7.607 4.701-4.703 7.606-11.192 7.607-18.367 0-7.175-2.906-13.664-7.607-18.367-4.702-4.701-11.192-7.607-18.368-7.607" clip-path="url(#b)" fill="#222E3B"/><path d="M54.816 27.408h-1.434.717.717m-27.407-27.408h-.001c-7.567 0-14.424 3.069-19.381 8.027-4.959 4.958-8.027 11.814-8.027 19.381s3.068 14.423 8.027 19.381c4.957 4.958 11.814 8.027 19.381 8.027h.001c7.568 0 14.424-3.069 19.382-8.027 4.958-4.958 8.027-11.814 8.027-19.381h-1.434c0 7.175-2.906 13.664-7.607 18.367-4.702 4.701-11.191 7.607-18.368 7.607-7.176 0-13.665-2.906-18.368-7.607-4.701-4.703-7.606-11.192-7.607-18.367 0-7.175 2.905-13.664 7.607-18.367 4.702-4.701 11.191-7.607 18.368-7.607 7.176 0 13.665 2.906 18.368 7.607 4.701 4.703 7.606 11.192 7.607 18.367h1.434c0-7.567-3.068-14.423-8.027-19.381-4.958-4.958-11.814-8.027-19.382-8.027" clip-path="url(#b)" fill="#fff"/><path d="M25.672 1.131c8.487-.589 15.201 2.868 19.592 6.822 4.503 4.054 8.043 9.804 8.562 17.865.553 8.433-2.714 14.849-6.808 19.35-3.936 4.339-10.078 8.116-17.948 8.57-8.334.477-15.05-2.648-19.589-6.82-4.526-4.16-8.251-9.846-8.715-17.724-.503-8.675 2.818-15.096 6.817-19.496 2.981-3.287 7.146-6.147 12.235-7.628 1.781-.516 3.972-.81 5.854-.939zm-11.96 44.856c-.971-.344-1.187-1.438-1.495-2.443-.083-.223-.475-.139-.36-.558.012-.103.175-.064.283-.068.117-1.025-.6-1.639-.649-2.588-.038-.696.219-1.393.128-2.102-.161-1.293-.359-2.571-.374-4.057-.306-.394-.546-.858-1.136-.974-.599-.685-1.015-1.563-1.288-2.582-.464-.213-1.044-1.113-.499-1.677-.645-.673.222-1.599.476-2.239.023-.679-.001-1.306-.359-1.611-.266-.024-.143.321-.28.423-.444-.006-.406-.352-.778-.274-.019-.354-.345-.406-.498-.625-.044-1.101-1.423-.87-1.63-1.81-.266-.007-.211.302-.566.212-.743-.546-1.396-.631-1.493-1.462-.022-.247.143-.431.07-.699-.135-.498-.565-.921-.715-1.397-.004.501.619 1.323.151 1.61-.297-.199-.198-.786-.428-1.05-1.144 2.679-1.448 6.75-1.07 10.366.875 8.398 6.139 15.383 12.244 19.176 1.415.878 2.704 1.822 3.964 1.236-.044-.15-.213-.539-.357-.348.054.009.212.234.068.214-.424.077-1.074.115-1.34-.274.143-.253.141-.379-.005-.63-.303.227-.882.092-.919-.346.29-.071.286.007.636-.002.148-.113-.047-.553.279-.492.299.011.337.36.145.488.409.06.458.476.777.63-.034-.413-.261-.392-.284-.704-.066-.942 1.405-1.229 1.691-.569-.417.1-.872.167-.844.707 1.063.716 1.857 1.703 2.975 2.363.061.291-.132.329-.134.559 1.662.485 5.078 1.492 6.848.662.382-.038.733.051 1.06-.004.737-.121 1.773-.98 2.395-1.064.201-.03.502.11.706.063.317-.071.535-.402.844-.563.854-.448 1.902-.57 3.032-.716.029.345.719.032.706.411.402-.22.545.019.988.069.423-.545 1.196-.511 2.114-.433 8.102-4.04 14.416-11.647 14.766-23.031.094-2.995-.41-5.606-1.098-8.114-.57.029-.853-.232-1.345-.271.004.509.596.665.64 1.114.039.406-.287.463-.277.982-.64.618-1.566.966-2.324 1.48-.004.229.076.536-.206.493-.395-.092-.362-.617-.635-.832-.074-1.291-1.078-1.646-1.148-2.939-.116-.231-.427-.274-.499-.558-.127-.44-.273-1.205-.712-1.111.076.767.604 1.696 1.071 2.304-.194 1.18.989 2.128 1.571 2.998-.082.172-.396.343-.209.564.51-.11 1.167-.171 1.69-.43.122 1.325-.751 2.278-.965 3.507-.16.08-.235.228-.423.281-.112 1.194-1.572 1.491-1.395 2.595.038.285.45.442.566.767.239.678-.109 1.222-.131 2.1-.548.433-1.151.814-1.477 1.476.286.378.268 1.164.012 1.54l-.352.002c-.45.788-.5 1.966-1.397 2.32-.222.872-1.007 1.189-1.686 1.618-.681-.264-1.836.897-2.117-.202-.101-.279.152-.219.139-.418-.652-.962-1.052-1.914-1.22-3.212l-.712-1.743c-.133-1.239 1.382-2.638.05-3.567-.182-.996-.871-1.474-1.146-2.377.228-.424.327-1.408.061-1.888-.727.536-1.151-.52-1.766-.623-.735-.121-1.388.519-2.114.714-.478-.029-.61-.368-1.06-.343-.469.023-.737.479-1.266.422-1.219-.131-1.781-1.539-2.274-2.646-.345-.191-.716-.357-.922-.691.085-.434-.112-.597-.216-.843.39-.615.665-1.987.06-2.592.716-1.003 1.044-2.4 2.309-2.877.656-.613.504-2.015 1.545-2.253-.004-.39.21-.578.414-.771-.233-.303-.847-.227-1.27-.338-.167-.824.338-1.673-.083-2.522.579-.615 1.686.075 2.681-.082.409-1.13-.51-1.497-1.139-1.818 0-.182-.03-.395.066-.49.834.142.857-.499 1.551-.146.021-.234-.347-.073-.213-.419-.43.134-1.267.248-1.761.084.086-.244.39-.269.417-.566-.256.043-.4-.023-.421-.207.084-.082.246-.082.421-.078l-.071-.554c.08-.081.25-.085.42-.072l-.142-.492c-.259-.02-.394.084-.566.145l.004.627c-.194.302-.502.486-.912.57-.143-.215-.467-.246-.641-.422.018-.345-.016-.639-.073-.905.556.075.668-.309 1.124-.497.018.092.4.274.355-.003.065-.252-.32-.057-.287-.277.276-.261.22-.853.556-1.056.222.016.522-.048.639.072.031.168-.128.151-.067.348.27-.038.437.028.494.208.019.273-.25.258-.209.56.368-.012.341.224.287.488.347.144.625.355.639.835.129.109.398.073.493.208.25.216-.214.37.004.562.574.051.609-.425.847-.708.374-.132.89-.116 1.197-.144-.323-.616-.459-1.627.485-1.682.214.522.186.757.01 1.258.184.258.715.224.497.699.722.637 1.479-.036 2.331.265.226-.381.09-1.116.558-1.26.351-.05.231.373.567.344-.012-.487-.541-.58-.289-1.12-.707-.224-1.144-.724-1.839-.968.016.335.44.262.352.697-.505.203-.474.924-.558 1.544-.301.164-1.268.156-1.411-.269-.103-.43.437-.225.421-.559-.282-.333-.59-.634-.713-1.12-.527.119-.645.504-1.131.425-.737-.12-1.002-1.702-.499-2.237-3.776-1.328-9.466-1.758-13.982-.76-.208.262-.246.688-.562.84.221.664-.511 1.148-1.051 1.479-.174-.062-.209-.26-.356-.348-.23.004-.347.118-.633.073-.21-.221-.202-.342-.073-.628-.311-.02-.337-.319-.571-.42-1.803.531-3.276 1.38-4.78 2.196-.153.276-.301.542-.421.845.09.068.262.063.283.207.609-.103.49-.914 1.126-.987.224.62.406 1.279.577 1.955.173.061.374.091.633.069-.059.454.456.336.494.698-.163.558-.487.952-1.117 1.055-.056.619-.832.532-1.268.775.119.164.629-.067.563.281-.397.284-1.001-.057-1.056.565.169.134.657-.05.707.204.021.226-.276.152-.278.35.225.031.407.105.358.42-.432.343-1.033.526-1.485.848-.202-.15-.042-.447-.143-.558-.312.342-.924.391-1.126.843l.147.423c-.483.128-.605.612-1.051.775-.231.448-.352 1.001-.773 1.26.023.17.111.265.072.492-.212.73-.951.734-1.332 1.335-.524.826.39 2.028-.408 2.732-.238-.42-.358-.952-.432-1.539l-1.055.005c.016.276-.026.49-.213.564-.291-.016-.306-.306-.639-.277-1.23.404-1.2 2.318-.756 3.506 1.089.22.707-1.707 1.833-.988-.104.615-.359 1.091-.487 1.682 1.806-.574.599 1.551 1.352 2.158.439-.312 1.01-.135 1.273-.006.158-.675.749-.933 1.332-1.196.132.308.096.074.423.068.1.273.377.373.5.626.382-.021.511-.106.777.067.148-.251.458-.337.915-.288.087.707 1.099.975 1.417 1.673 1.636-.139 2.162.837 2.412 2.084.648.327 1.519.22 1.842.973 1.29-.156 3.22.727 3.537 1.589.292.788-1.06 2.183-1.325 2.385.143 1.122-.112 3.109-.758 3.366-.246.102-.532-.038-.847.006-.358.345-.929.482-1.194.913-.056.359.094.511.072.843-.584.722-.856 1.758-1.681 2.244-.102-.105-.364-.059-.56-.062.502.758-.08 1.544-1.128 1.194 0 .228.112.457.004.702-.255.02-.458-.011-.635-.068-.064.395.524.132.5.487-.01.182-.265.111-.349.213.006.199-.038.457.072.559-.104.13-.488-.008-.424.283.162.21.525.22.566.555-.177.336-.356.669-.557.983.357.724.937 1.221 1.56 1.67-.58.204-1.523-.034-1.837-.476.237.031.281-.744.211-.564-.168.024.002.375-.217.346zm-4.232-37.56c.1.037.366-.086.351.07-.088.414-.241.888.006 1.259.562-.033.524-.814.346-1.192.4-.42.982-.66.98-1.475-.636.102-1.265.79-1.683 1.338zm25.123-.279c.175.054.286-.453.072-.347.055.195-.1.181-.072.347zm-21.444 1.589c0 .107-.26.29-.075.348.194-.179.666-.087.708-.421-.293-.054-.363.112-.633.073zm35.236 3.095c-.348.976.07 1.793 1.135 1.744-.014-.616-.292-.971-.572-1.329-.118-1.359-1.049-1.9-1.708-2.721.048.852.587 1.744 1.145 2.306zm-5.02-1.093c.181.125.292.317.429.485 1.528-.425 2.259.512 3.531.471-.188-.82-1.22-.793-1.492-1.53.102-.039.365.08.354-.07-.124-.02-.163-.121-.145-.281-.139.117-.525-.003-.634.142.134.079.342.085.284.349-.296-.06-.618-.222-.917-.063-.093-.182-.154-.212-.074-.421-.385.081-.375-.234-.706-.204-.252.333-.402.767-.63 1.122zm-29.505-.675c-.133-.055-.263-.115-.421-.138-.097.234.357.288.421.138zm23.571-.273c-.502.276-1.012.456-1.693.219-.159.866-1.205.861-1.044 2.038-.486.493-1.127.727-2.044.784.735.619 1.497.019 2.26-.156.811-.185 1.584-.111 2.468-.012.177-.06.275-.193.496-.215.156.127.362.204.566.277-.185.377.312.478.146 1.048 1.077.42 1.716 1.281 2.833 1.662.04-.317-.131-.431-.073-.767.179-.236.777-.067.986-.285.736.895 2.084.996 3.462 1.1.119-.699.057-1.224.135-1.891-.333-.018-.473.144-.778.144-.197-.037-.181-.287-.426-.274-.809.249-1.293-.376-1.628-.832.013-.334.047-1.184-.501-1.188-.004.716.107.914.291 1.471-.252-.111-.04.238-.216.211-.092.014-.211-.286-.278-.068.112-.051.115.326.002.277-.956-.379-1.391-1.278-1.567-2.438-.298-.155-.42-.338-.849-.204.104.501.8.417.784 1.043-.221.198-.328-.138-.57-.136-.004.219.191.229.145.491-.224.032-.378.139-.42.35-.135.137-.286-.074-.496-.068.043.172.106.322.074.561-.167 0-.204.12-.422.073-.236-.271-.701-.644-.572-1.046.377.246.696.127 1.059.063-.264-1.188-1.549-1.356-2.13-2.232zm-29.709 1.007c.285-.016.289-.013.216.209.221.033.246-.129.492-.074.012-.297-.138-.427-.356-.488-.059.177-.247.223-.352.353zm-.212.279c.011-.083.127-.156-.001-.211-.006.086-.124.162.001.211zm1.35.695c.044-.203.112-.622.418-.355l-.069-.279c-.316-.029-.354.1-.568.004.042.238.141.421.219.63zm40.446.475c-.032-.133-.028-.302-.218-.278-.014.179.026.3.218.278zm.03 5.528c.166-.023.293-.139.422-.004.012.344.057.65.218.841.602.032.691-.435.909-.778-.27.013-.325.238-.633.212-.746-.21-.588-1.329-1.349-1.53.025.54.316.809.433 1.259zm-39.001 5.462c.226.03.402-.297.139-.348-.033.135-.153.176-.139.348z" fill="#E5382F"/><path d="M27.287 1.35c3.518 0 6.931.689 10.142 2.047 3.103 1.312 5.89 3.191 8.283 5.585 2.393 2.393 4.272 5.18 5.585 8.283 1.359 3.212 2.047 6.624 2.047 10.142s-.689 6.931-2.047 10.143c-1.312 3.103-3.191 5.89-5.585 8.284-2.393 2.394-5.18 4.273-8.283 5.585-3.212 1.359-6.624 2.048-10.142 2.048s-6.931-.689-10.143-2.048c-3.103-1.313-5.89-3.192-8.283-5.585-2.394-2.394-4.273-5.181-5.585-8.284-1.359-3.212-2.047-6.624-2.047-10.143 0-3.518.689-6.931 2.047-10.142 1.312-3.103 3.192-5.89 5.585-8.283 2.394-2.393 5.181-4.273 8.283-5.585 3.212-1.358 6.625-2.047 10.143-2.047m0-.999c-14.944 0-27.058 12.114-27.058 27.057 0 14.943 12.114 27.058 27.058 27.058 14.943 0 27.057-12.115 27.057-27.058s-12.114-27.057-27.057-27.057z" fill="#fff"/></svg>